<mxfile host="Electron" modified="2025-04-07T08:47:52.959Z" agent="Mozilla/5.0 (X11; Linux x86_64) AppleWebKit/537.36 (KHTML, like Gecko) draw.io/22.1.2 Chrome/114.0.5735.289 Electron/25.9.4 Safari/537.36" etag="4rTxP3mSIu9uM9OrS4s_" version="22.1.2" type="device">
  <diagram name="Page-1" id="S2h_ZQmrx3T9z0P8xpj5">
    <mxGraphModel dx="1768" dy="1126" grid="1" gridSize="10" guides="1" tooltips="1" connect="1" arrows="1" fold="1" page="1" pageScale="1" pageWidth="827" pageHeight="1169" math="0" shadow="0">
      <root>
        <mxCell id="0" />
        <mxCell id="1" parent="0" />
        <mxCell id="cwrhPxI-1V7dXrqJGJlZ-1" value="SerialLinkBase" style="swimlane;fontStyle=1;align=center;verticalAlign=top;childLayout=stackLayout;horizontal=1;startSize=22.794117647058822;horizontalStack=0;resizeParent=1;resizeParentMax=0;resizeLast=0;collapsible=0;marginBottom=0;" vertex="1" parent="1">
          <mxGeometry x="10" y="10" width="900" height="789.7941176470588" as="geometry" />
        </mxCell>
        <mxCell id="cwrhPxI-1V7dXrqJGJlZ-2" value="-bool _redundantTaskSet" style="text;strokeColor=none;fillColor=none;align=left;verticalAlign=top;spacingLeft=4;spacingRight=4;overflow=hidden;rotatable=0;points=[[0,0.5],[1,0.5]];portConstraint=eastwest;" vertex="1" parent="cwrhPxI-1V7dXrqJGJlZ-1">
          <mxGeometry y="22.794117647058822" width="900" height="23" as="geometry" />
        </mxCell>
        <mxCell id="cwrhPxI-1V7dXrqJGJlZ-3" value="-double _jointPositionGain" style="text;strokeColor=none;fillColor=none;align=left;verticalAlign=top;spacingLeft=4;spacingRight=4;overflow=hidden;rotatable=0;points=[[0,0.5],[1,0.5]];portConstraint=eastwest;" vertex="1" parent="cwrhPxI-1V7dXrqJGJlZ-1">
          <mxGeometry y="45.794117647058826" width="900" height="23" as="geometry" />
        </mxCell>
        <mxCell id="cwrhPxI-1V7dXrqJGJlZ-4" value="-double _jointVelocityGain" style="text;strokeColor=none;fillColor=none;align=left;verticalAlign=top;spacingLeft=4;spacingRight=4;overflow=hidden;rotatable=0;points=[[0,0.5],[1,0.5]];portConstraint=eastwest;" vertex="1" parent="cwrhPxI-1V7dXrqJGJlZ-1">
          <mxGeometry y="68.79411764705883" width="900" height="23" as="geometry" />
        </mxCell>
        <mxCell id="cwrhPxI-1V7dXrqJGJlZ-5" value="-double _manipulability" style="text;strokeColor=none;fillColor=none;align=left;verticalAlign=top;spacingLeft=4;spacingRight=4;overflow=hidden;rotatable=0;points=[[0,0.5],[1,0.5]];portConstraint=eastwest;" vertex="1" parent="cwrhPxI-1V7dXrqJGJlZ-1">
          <mxGeometry y="91.79411764705883" width="900" height="23" as="geometry" />
        </mxCell>
        <mxCell id="cwrhPxI-1V7dXrqJGJlZ-6" value="-double _minManipulability" style="text;strokeColor=none;fillColor=none;align=left;verticalAlign=top;spacingLeft=4;spacingRight=4;overflow=hidden;rotatable=0;points=[[0,0.5],[1,0.5]];portConstraint=eastwest;" vertex="1" parent="cwrhPxI-1V7dXrqJGJlZ-1">
          <mxGeometry y="114.79411764705883" width="900" height="23" as="geometry" />
        </mxCell>
        <mxCell id="cwrhPxI-1V7dXrqJGJlZ-7" value="-double _maxJointAcceleration" style="text;strokeColor=none;fillColor=none;align=left;verticalAlign=top;spacingLeft=4;spacingRight=4;overflow=hidden;rotatable=0;points=[[0,0.5],[1,0.5]];portConstraint=eastwest;" vertex="1" parent="cwrhPxI-1V7dXrqJGJlZ-1">
          <mxGeometry y="137.79411764705884" width="900" height="23" as="geometry" />
        </mxCell>
        <mxCell id="cwrhPxI-1V7dXrqJGJlZ-8" value="-double _controlFrequency" style="text;strokeColor=none;fillColor=none;align=left;verticalAlign=top;spacingLeft=4;spacingRight=4;overflow=hidden;rotatable=0;points=[[0,0.5],[1,0.5]];portConstraint=eastwest;" vertex="1" parent="cwrhPxI-1V7dXrqJGJlZ-1">
          <mxGeometry y="160.79411764705884" width="900" height="23" as="geometry" />
        </mxCell>
        <mxCell id="cwrhPxI-1V7dXrqJGJlZ-9" value="-Eigen::Matrix _cartesianStiffness" style="text;strokeColor=none;fillColor=none;align=left;verticalAlign=top;spacingLeft=4;spacingRight=4;overflow=hidden;rotatable=0;points=[[0,0.5],[1,0.5]];portConstraint=eastwest;" vertex="1" parent="cwrhPxI-1V7dXrqJGJlZ-1">
          <mxGeometry y="183.79411764705884" width="900" height="23" as="geometry" />
        </mxCell>
        <mxCell id="cwrhPxI-1V7dXrqJGJlZ-10" value="-Eigen::Matrix _cartesianDamping" style="text;strokeColor=none;fillColor=none;align=left;verticalAlign=top;spacingLeft=4;spacingRight=4;overflow=hidden;rotatable=0;points=[[0,0.5],[1,0.5]];portConstraint=eastwest;" vertex="1" parent="cwrhPxI-1V7dXrqJGJlZ-1">
          <mxGeometry y="206.79411764705884" width="900" height="23" as="geometry" />
        </mxCell>
        <mxCell id="cwrhPxI-1V7dXrqJGJlZ-11" value="-Eigen::Matrix _jacobianMatrix" style="text;strokeColor=none;fillColor=none;align=left;verticalAlign=top;spacingLeft=4;spacingRight=4;overflow=hidden;rotatable=0;points=[[0,0.5],[1,0.5]];portConstraint=eastwest;" vertex="1" parent="cwrhPxI-1V7dXrqJGJlZ-1">
          <mxGeometry y="229.79411764705884" width="900" height="23" as="geometry" />
        </mxCell>
        <mxCell id="cwrhPxI-1V7dXrqJGJlZ-12" value="-Eigen::Matrix _forceEllipsoid" style="text;strokeColor=none;fillColor=none;align=left;verticalAlign=top;spacingLeft=4;spacingRight=4;overflow=hidden;rotatable=0;points=[[0,0.5],[1,0.5]];portConstraint=eastwest;" vertex="1" parent="cwrhPxI-1V7dXrqJGJlZ-1">
          <mxGeometry y="252.79411764705884" width="900" height="23" as="geometry" />
        </mxCell>
        <mxCell id="cwrhPxI-1V7dXrqJGJlZ-13" value="-Eigen::Matrix _constraintMatrix" style="text;strokeColor=none;fillColor=none;align=left;verticalAlign=top;spacingLeft=4;spacingRight=4;overflow=hidden;rotatable=0;points=[[0,0.5],[1,0.5]];portConstraint=eastwest;" vertex="1" parent="cwrhPxI-1V7dXrqJGJlZ-1">
          <mxGeometry y="275.79411764705884" width="900" height="23" as="geometry" />
        </mxCell>
        <mxCell id="cwrhPxI-1V7dXrqJGJlZ-14" value="-Eigen::VectorXd _constraintVector" style="text;strokeColor=none;fillColor=none;align=left;verticalAlign=top;spacingLeft=4;spacingRight=4;overflow=hidden;rotatable=0;points=[[0,0.5],[1,0.5]];portConstraint=eastwest;" vertex="1" parent="cwrhPxI-1V7dXrqJGJlZ-1">
          <mxGeometry y="298.79411764705884" width="900" height="23" as="geometry" />
        </mxCell>
        <mxCell id="cwrhPxI-1V7dXrqJGJlZ-15" value="-Eigen::VectorXd _redundantTask" style="text;strokeColor=none;fillColor=none;align=left;verticalAlign=top;spacingLeft=4;spacingRight=4;overflow=hidden;rotatable=0;points=[[0,0.5],[1,0.5]];portConstraint=eastwest;" vertex="1" parent="cwrhPxI-1V7dXrqJGJlZ-1">
          <mxGeometry y="321.79411764705884" width="900" height="23" as="geometry" />
        </mxCell>
        <mxCell id="cwrhPxI-1V7dXrqJGJlZ-17" value="-Pose _endpointPose" style="text;strokeColor=none;fillColor=none;align=left;verticalAlign=top;spacingLeft=4;spacingRight=4;overflow=hidden;rotatable=0;points=[[0,0.5],[1,0.5]];portConstraint=eastwest;" vertex="1" parent="cwrhPxI-1V7dXrqJGJlZ-1">
          <mxGeometry y="344.79411764705884" width="900" height="23" as="geometry" />
        </mxCell>
        <mxCell id="cwrhPxI-1V7dXrqJGJlZ-18" value="-ReferenceFrame *_endpointFrame" style="text;strokeColor=none;fillColor=none;align=left;verticalAlign=top;spacingLeft=4;spacingRight=4;overflow=hidden;rotatable=0;points=[[0,0.5],[1,0.5]];portConstraint=eastwest;" vertex="1" parent="cwrhPxI-1V7dXrqJGJlZ-1">
          <mxGeometry y="367.79411764705884" width="900" height="23" as="geometry" />
        </mxCell>
        <mxCell id="cwrhPxI-1V7dXrqJGJlZ-16" value="-std::shared_ptr _model" style="text;strokeColor=none;fillColor=none;align=left;verticalAlign=top;spacingLeft=4;spacingRight=4;overflow=hidden;rotatable=0;points=[[0,0.5],[1,0.5]];portConstraint=eastwest;" vertex="1" parent="cwrhPxI-1V7dXrqJGJlZ-1">
          <mxGeometry y="390.79411764705884" width="900" height="23" as="geometry" />
        </mxCell>
        <mxCell id="cwrhPxI-1V7dXrqJGJlZ-19" style="line;strokeWidth=1;fillColor=none;align=left;verticalAlign=middle;spacingTop=-1;spacingLeft=3;spacingRight=3;rotatable=0;labelPosition=right;points=[];portConstraint=eastwest;strokeColor=inherit;" vertex="1" parent="cwrhPxI-1V7dXrqJGJlZ-1">
          <mxGeometry y="413.79411764705884" width="900" height="8" as="geometry" />
        </mxCell>
        <mxCell id="cwrhPxI-1V7dXrqJGJlZ-20" value="+SerialLinkBase(std::shared_ptr model, const std::string &amp;endpointName, const Parameters &amp;parameters)" style="text;strokeColor=none;fillColor=none;align=left;verticalAlign=top;spacingLeft=4;spacingRight=4;overflow=hidden;rotatable=0;points=[[0,0.5],[1,0.5]];portConstraint=eastwest;" vertex="1" parent="cwrhPxI-1V7dXrqJGJlZ-1">
          <mxGeometry y="421.79411764705884" width="900" height="23" as="geometry" />
        </mxCell>
        <mxCell id="cwrhPxI-1V7dXrqJGJlZ-33" value="+bool is_singular()" style="text;strokeColor=none;fillColor=none;align=left;verticalAlign=top;spacingLeft=4;spacingRight=4;overflow=hidden;rotatable=0;points=[[0,0.5],[1,0.5]];portConstraint=eastwest;" vertex="1" parent="cwrhPxI-1V7dXrqJGJlZ-1">
          <mxGeometry y="444.79411764705884" width="900" height="23" as="geometry" />
        </mxCell>
        <mxCell id="cwrhPxI-1V7dXrqJGJlZ-32" value="+bool set_redundant_task(const Eigen::VectorXd &amp;task)" style="text;strokeColor=none;fillColor=none;align=left;verticalAlign=top;spacingLeft=4;spacingRight=4;overflow=hidden;rotatable=0;points=[[0,0.5],[1,0.5]];portConstraint=eastwest;" vertex="1" parent="cwrhPxI-1V7dXrqJGJlZ-1">
          <mxGeometry y="467.79411764705884" width="900" height="23" as="geometry" />
        </mxCell>
        <mxCell id="cwrhPxI-1V7dXrqJGJlZ-25" value="+double manipulability() const" style="text;strokeColor=none;fillColor=none;align=left;verticalAlign=top;spacingLeft=4;spacingRight=4;overflow=hidden;rotatable=0;points=[[0,0.5],[1,0.5]];portConstraint=eastwest;" vertex="1" parent="cwrhPxI-1V7dXrqJGJlZ-1">
          <mxGeometry y="490.79411764705884" width="900" height="23" as="geometry" />
        </mxCell>
        <mxCell id="cwrhPxI-1V7dXrqJGJlZ-35" value="+double frequency() const" style="text;strokeColor=none;fillColor=none;align=left;verticalAlign=top;spacingLeft=4;spacingRight=4;overflow=hidden;rotatable=0;points=[[0,0.5],[1,0.5]];portConstraint=eastwest;" vertex="1" parent="cwrhPxI-1V7dXrqJGJlZ-1">
          <mxGeometry y="513.7941176470588" width="900" height="23" as="geometry" />
        </mxCell>
        <mxCell id="cwrhPxI-1V7dXrqJGJlZ-21" value="+Eigen::VectorXd resolve_endpoint_motion(const Eigen::Vector &amp;endpointMotion)" style="text;strokeColor=none;fillColor=none;align=left;verticalAlign=top;spacingLeft=4;spacingRight=4;overflow=hidden;rotatable=0;points=[[0,0.5],[1,0.5]];portConstraint=eastwest;" vertex="1" parent="cwrhPxI-1V7dXrqJGJlZ-1">
          <mxGeometry y="536.7941176470588" width="900" height="23" as="geometry" />
        </mxCell>
        <mxCell id="cwrhPxI-1V7dXrqJGJlZ-22" value="+Eigen::VectorXd resolve_endpoint_twist(const Eigen::Vector &amp;twist)" style="text;strokeColor=none;fillColor=none;align=left;verticalAlign=top;spacingLeft=4;spacingRight=4;overflow=hidden;rotatable=0;points=[[0,0.5],[1,0.5]];portConstraint=eastwest;" vertex="1" parent="cwrhPxI-1V7dXrqJGJlZ-1">
          <mxGeometry y="559.7941176470588" width="900" height="23" as="geometry" />
        </mxCell>
        <mxCell id="cwrhPxI-1V7dXrqJGJlZ-23" value="+Eigen::VectorXd track_endpoint_trajectory(const Pose &amp;desiredPose, const Eigen::Vector &amp;desiredVelocity, const Eigen::Vector &amp;desiredAcceleration)" style="text;strokeColor=none;fillColor=none;align=left;verticalAlign=top;spacingLeft=4;spacingRight=4;overflow=hidden;rotatable=0;points=[[0,0.5],[1,0.5]];portConstraint=eastwest;" vertex="1" parent="cwrhPxI-1V7dXrqJGJlZ-1">
          <mxGeometry y="582.7941176470588" width="900" height="23" as="geometry" />
        </mxCell>
        <mxCell id="cwrhPxI-1V7dXrqJGJlZ-24" value="+Eigen::VectorXd track_joint_trajectory(const Eigen::VectorXd &amp;desiredPosition, const Eigen::VectorXd &amp;desiredVelocity, const Eigen::VectorXd &amp;desiredAcceleration)" style="text;strokeColor=none;fillColor=none;align=left;verticalAlign=top;spacingLeft=4;spacingRight=4;overflow=hidden;rotatable=0;points=[[0,0.5],[1,0.5]];portConstraint=eastwest;" vertex="1" parent="cwrhPxI-1V7dXrqJGJlZ-1">
          <mxGeometry y="605.7941176470588" width="900" height="23" as="geometry" />
        </mxCell>
        <mxCell id="cwrhPxI-1V7dXrqJGJlZ-28" value="+Eigen::Vector endpoint_velocity() const" style="text;strokeColor=none;fillColor=none;align=left;verticalAlign=top;spacingLeft=4;spacingRight=4;overflow=hidden;rotatable=0;points=[[0,0.5],[1,0.5]];portConstraint=eastwest;" vertex="1" parent="cwrhPxI-1V7dXrqJGJlZ-1">
          <mxGeometry y="628.7941176470588" width="900" height="23" as="geometry" />
        </mxCell>
        <mxCell id="cwrhPxI-1V7dXrqJGJlZ-26" value="+Eigen::VectorXd manipulability_gradient()" style="text;strokeColor=none;fillColor=none;align=left;verticalAlign=top;spacingLeft=4;spacingRight=4;overflow=hidden;rotatable=0;points=[[0,0.5],[1,0.5]];portConstraint=eastwest;" vertex="1" parent="cwrhPxI-1V7dXrqJGJlZ-1">
          <mxGeometry y="651.7941176470588" width="900" height="23" as="geometry" />
        </mxCell>
        <mxCell id="cwrhPxI-1V7dXrqJGJlZ-29" value="+Eigen::Matrix jacobian() const" style="text;strokeColor=none;fillColor=none;align=left;verticalAlign=top;spacingLeft=4;spacingRight=4;overflow=hidden;rotatable=0;points=[[0,0.5],[1,0.5]];portConstraint=eastwest;" vertex="1" parent="cwrhPxI-1V7dXrqJGJlZ-1">
          <mxGeometry y="674.7941176470588" width="900" height="23" as="geometry" />
        </mxCell>
        <mxCell id="cwrhPxI-1V7dXrqJGJlZ-27" value="+Pose endpoint_pose() const" style="text;strokeColor=none;fillColor=none;align=left;verticalAlign=top;spacingLeft=4;spacingRight=4;overflow=hidden;rotatable=0;points=[[0,0.5],[1,0.5]];portConstraint=eastwest;" vertex="1" parent="cwrhPxI-1V7dXrqJGJlZ-1">
          <mxGeometry y="697.7941176470588" width="900" height="23" as="geometry" />
        </mxCell>
        <mxCell id="cwrhPxI-1V7dXrqJGJlZ-34" value="+std::shared_ptr model() const" style="text;strokeColor=none;fillColor=none;align=left;verticalAlign=top;spacingLeft=4;spacingRight=4;overflow=hidden;rotatable=0;points=[[0,0.5],[1,0.5]];portConstraint=eastwest;" vertex="1" parent="cwrhPxI-1V7dXrqJGJlZ-1">
          <mxGeometry y="720.7941176470588" width="900" height="23" as="geometry" />
        </mxCell>
        <mxCell id="cwrhPxI-1V7dXrqJGJlZ-30" value="+void update()" style="text;strokeColor=none;fillColor=none;align=left;verticalAlign=top;spacingLeft=4;spacingRight=4;overflow=hidden;rotatable=0;points=[[0,0.5],[1,0.5]];portConstraint=eastwest;" vertex="1" parent="cwrhPxI-1V7dXrqJGJlZ-1">
          <mxGeometry y="743.7941176470588" width="900" height="23" as="geometry" />
        </mxCell>
        <mxCell id="cwrhPxI-1V7dXrqJGJlZ-31" value="+void set_control_parameters(const Parameters &amp;parameters)" style="text;strokeColor=none;fillColor=none;align=left;verticalAlign=top;spacingLeft=4;spacingRight=4;overflow=hidden;rotatable=0;points=[[0,0.5],[1,0.5]];portConstraint=eastwest;" vertex="1" parent="cwrhPxI-1V7dXrqJGJlZ-1">
          <mxGeometry y="766.7941176470588" width="900" height="23" as="geometry" />
        </mxCell>
      </root>
    </mxGraphModel>
  </diagram>
</mxfile>
